<?xml version="1.0" standalone="no"?>

<svg version="1.0" xmlns="http://www.w3.org/2000/svg"
     width="300.000000pt" height="88.000000pt" viewBox="0 0 171.000000 150.000000"
     preserveAspectRatio="xMidYMid meet">
  <metadata>
    Created by potrace 1.10, written by Peter Selinger 2001-2011
  </metadata>
  <g transform="translate(0.000000,150.000000) scale(0.100000,-0.100000)"
     fill="#000000" stroke="none">
    <path d="M870 1254 c0 -5 -36 -79 -80 -164 -44 -85 -80 -160 -80 -165 0 -12
162 -175 174 -175 10 0 346 322 346 332 0 4 -5 8 -10 8 -6 0 -75 36 -153 81
-134 76 -197 102 -197 83z m275 -178 c8 -13 -14 -40 -110 -136 -66 -66 -130
-123 -142 -126 -18 -5 -35 5 -78 47 -30 29 -55 60 -55 69 0 24 118 252 137
267 14 11 35 3 127 -47 61 -32 115 -66 121 -74z"/>
    <path d="M735 1190 c-33 -20 -89 -52 -125 -70 -36 -19 -67 -35 -69 -37 -8 -6
102 -113 116 -113 10 0 148 250 140 255 -1 1 -29 -15 -62 -35z m-56 -107 c-18
-48 -29 -56 -50 -37 -21 19 -11 39 26 54 32 14 35 12 24 -17z"/>
    <path d="M434 1021 c-81 -47 -88 -60 -93 -164 -3 -81 -1 -89 14 -83 9 3 80 22
158 43 78 20 146 40 151 44 12 10 -6 31 -105 120 l-75 68 -50 -28z m116 -85
c26 -28 40 -49 35 -54 -6 -5 -50 -19 -98 -32 -97 -25 -107 -23 -107 30 0 37
21 72 59 97 39 27 48 24 111 -41z"/>
    <path d="M1185 960 c-49 -49 -86 -92 -83 -95 5 -5 230 -66 301 -81 l27 -6 0
71 c0 45 -6 83 -15 102 -14 26 -111 99 -132 99 -5 0 -49 -40 -98 -90z m135 25
c15 -8 38 -27 49 -41 31 -40 26 -104 -8 -104 -20 0 -174 39 -180 46 -4 4 99
114 107 114 1 0 16 -7 32 -15z"/>
    <path d="M587 781 c-54 -14 -97 -31 -96 -36 3 -11 326 -215 340 -215 5 0 9 37
9 83 0 89 -8 110 -68 166 -39 37 -54 38 -185 2z m177 -51 c29 -32 36 -48 36
-80 0 -29 -4 -40 -15 -40 -19 0 -195 108 -195 120 0 10 82 37 116 39 13 1 36
-15 58 -39z"/>
    <path d="M999 763 l-47 -48 -4 -92 c-3 -68 -1 -93 8 -93 6 0 81 43 165 95 85
52 161 98 169 104 23 13 12 19 -91 46 -157 43 -148 43 -200 -12z m147 -14 c24
-6 44 -17 44 -24 0 -11 -175 -125 -193 -125 -4 0 -7 22 -7 49 0 40 5 54 29 80
32 34 55 38 127 20z"/>
    <path d="M340 560 c0 -173 8 -208 53 -231 12 -6 114 -64 227 -128 112 -64 207
-117 210 -119 3 -1 3 82 0 185 l-5 188 -110 68 c-276 170 -324 197 -349 197
l-26 0 0 -160z m123 72 c34 -21 116 -71 182 -111 66 -41 126 -81 133 -89 12
-16 19 -272 7 -272 -10 0 -66 30 -228 123 -112 63 -161 97 -168 114 -16 44
-11 273 7 273 3 0 32 -17 67 -38z"/>
    <path d="M1160 587 l-215 -132 -5 -188 c-3 -103 -3 -187 -2 -187 2 0 105 57
229 128 164 92 231 135 245 157 16 27 18 49 16 190 l-3 160 -25 3 c-17 1 -90
-38 -240 -131z m224 67 c11 -30 6 -238 -7 -264 -8 -17 -71 -59 -192 -127 -99
-57 -185 -103 -192 -103 -10 0 -13 32 -13 130 0 123 1 131 23 150 24 21 358
229 368 230 4 0 10 -7 13 -16z"/>
  </g>
</svg>
